<?xml version="1.0" standalone="no"?>
<!DOCTYPE svg PUBLIC "-//W3C//DTD SVG 20010904//EN"
 "http://www.w3.org/TR/2001/REC-SVG-20010904/DTD/svg10.dtd">
<svg version="1.0" xmlns="http://www.w3.org/2000/svg"
 width="125.000000pt" height="120.000000pt" viewBox="0 0 125.000000 120.000000"
 preserveAspectRatio="xMidYMid meet">

<g transform="translate(0.000000,120.000000) scale(0.100000,-0.100000)"
fill="#000000" stroke="none">
<path d="M658 1053 c-8 -10 -62 -204 -118 -430 -100 -401 -103 -414 -85 -433
22 -25 47 -26 67 -2 9 9 62 203 118 430 100 400 102 413 85 432 -22 25 -47 26
-67 3z"/>
<path d="M204 757 c-73 -73 -114 -121 -114 -135 0 -25 224 -252 250 -252 20 0
50 31 50 52 0 8 -38 54 -85 102 -47 47 -85 89 -85 93 0 5 38 47 85 96 47 48
85 95 85 106 0 22 -30 51 -54 51 -9 0 -69 -51 -132 -113z"/>
<path d="M807 852 c-10 -10 -17 -26 -17 -35 0 -8 38 -54 85 -101 47 -46 85
-89 85 -93 0 -5 -38 -48 -85 -94 -53 -53 -85 -93 -85 -106 0 -28 26 -53 53
-53 28 0 247 219 247 247 0 26 -223 253 -248 253 -10 0 -26 -8 -35 -18z"/>
</g>
</svg>
